HIERARCHY
ROOT Hips
{
	OFFSET 0.000000 8.830580 0.000000
	CHANNELS 6 Xposition Yposition Zposition Zrotation Yrotation Xrotation 
	JOINT Spine
	{
		OFFSET 0.000000 0.010000 0.000000
		CHANNELS 3 Zrotation Yrotation Xrotation
		JOINT Spine1
		{
			OFFSET 0.000000 2.459130 0.000000
			CHANNELS 3 Zrotation Yrotation Xrotation
			JOINT Neck
			{
				OFFSET 0.000000 2.484630 0.000000
				CHANNELS 3 Zrotation Yrotation Xrotation
				JOINT Head_virtual
				{
					OFFSET 0.000000 0.000000 0.000000
					CHANNELS 3 Zrotation Yrotation Xrotation
					JOINT Head
					{
						OFFSET 0.000000 0.927525 0.000000
						CHANNELS 3 Zrotation Yrotation Xrotation
						End Site
						{
							OFFSET 0.000000 0.000000 0.000000
						}
					}
				}
				JOINT LeftUpArm_virtual
				{
					OFFSET 0.000000 0.000000 0.000000
					CHANNELS 3 Zrotation Yrotation Xrotation
					JOINT LeftUpArm
					{
						OFFSET 1.248820 0.000000 0.000000
						CHANNELS 3 Zrotation Yrotation Xrotation
						JOINT LeftForeArm
						{
							OFFSET 2.597580 0.000000 0.000000
							CHANNELS 3 Zrotation Yrotation Xrotation
							JOINT LeftHand
							{
								OFFSET 2.455420 0.000000 0.000000
								CHANNELS 3 Zrotation Yrotation Xrotation
								End Site
								{
									OFFSET 0.000000 0.000000 0.000000
								}
							}
						}
					}
				}
				JOINT RightUpArm_virtual
				{
					OFFSET -0.000000 -0.000000 -0.000000
					CHANNELS 3 Zrotation Yrotation Xrotation
					JOINT RightUpArm
					{
						OFFSET -1.248820 -0.000000 -0.000000
						CHANNELS 3 Zrotation Yrotation Xrotation
						JOINT RightForeArm
						{
							OFFSET -2.597580 -0.000000 -0.000000
							CHANNELS 3 Zrotation Yrotation Xrotation
							JOINT RightHand
							{
								OFFSET -2.455420 -0.000000 -0.000000
								CHANNELS 3 Zrotation Yrotation Xrotation
								End Site
								{
									OFFSET 0.000000 0.000000 0.000000
								}
							}
						}
					}
				}
			}
		}
	}
	JOINT LeftUpLeg
	{
		OFFSET 1.271939 0.000000 0.000000
		CHANNELS 3 Zrotation Yrotation Xrotation
		JOINT LeftLowLeg
		{
			OFFSET 0.000000 -4.342910 0.000000
			CHANNELS 3 Zrotation Yrotation Xrotation
			JOINT LeftFoot
			{
				OFFSET 0.000000 -4.487670 0.000000
				CHANNELS 3 Zrotation Yrotation Xrotation
				JOINT LeftToeBase
				{
					OFFSET 0.000000 0.000000 1.515070
					CHANNELS 3 Zrotation Yrotation Xrotation
					End Site
					{
						OFFSET 0.000000 0.000000 0.000000
					}
				}
			}
		}
	}
	JOINT RightUpLeg
	{
		OFFSET -1.271939 0.000000 0.000000
		CHANNELS 3 Zrotation Yrotation Xrotation
		JOINT RightLowLeg
		{
			OFFSET 0.000000 -4.342910 0.000000
			CHANNELS 3 Zrotation Yrotation Xrotation
			JOINT RightFoot
			{
				OFFSET 0.000000 -4.487670 0.000000
				CHANNELS 3 Zrotation Yrotation Xrotation
				JOINT RightToeBase
				{
					OFFSET 0.000000 0.000000 1.515070
					CHANNELS 3 Zrotation Yrotation Xrotation
					End Site
					{
						OFFSET 0.000000 0.000000 0.000000
					}
				}
			}
		}
	}
}
MOTION
Frames: 11
Frame Time: 0.041667
-14.929204 9.844218 29.201903 -165.316305 20.883240 -169.272347 -0.665498 16.991567 -14.255260 -19.314683 -3.050474 46.751036 0.000000 0.000000 0.000000 -164.421259 -50.208970 156.775626 -177.973080 32.683465 126.853583 -16.558201 -5.394070 -10.944100 -22.507099 -9.173760 16.959400 0.000000 -33.103199 0.000000 16.615601 5.343390 -1.250190 34.199902 -0.735077 -3.890100 43.759300 3.923260 22.455700 0.000000 39.858700 0.000000 -2.585800 2.461840 -0.631407 6.320925 23.181920 -5.341936 0.000000 0.000000 -3.078940 0.989708 -1.770195 13.871963 0.000000 0.000000 -8.941940 5.005053 0.568563 -10.548925 0.000000 0.000000 20.258900 15.074142 -16.551123 16.489012 0.000000 0.000000 -25.943100 
-14.917439 9.842424 29.247218 -165.345890 20.327107 -168.952040 -0.571864 17.298113 -13.973566 -19.728387 -3.076643 46.737981 0.000000 0.000000 0.000000 -164.440197 -50.528348 156.705654 -178.493665 32.722325 126.355482 -16.710899 -5.186450 -10.039200 -21.923100 -9.651300 16.256399 0.000000 -32.196499 0.000000 16.671801 5.192130 -1.990870 34.221100 -0.775183 -3.714670 43.993599 4.067230 22.597601 0.000000 40.780399 0.000000 -3.154350 2.609650 -1.086920 6.199282 23.198011 -5.876190 0.000000 0.000000 -3.617990 0.893334 -2.265294 14.460018 0.000000 0.000000 -8.951490 5.078071 1.799957 -10.970380 0.000000 0.000000 21.500700 15.536822 -16.306553 16.107418 0.000000 0.000000 -26.263700 
-14.901405 9.841172 29.291735 -165.366753 19.639142 -168.702218 -0.505998 17.489676 -13.844047 -20.100097 -3.054016 46.951543 0.000000 0.000000 0.000000 -164.663009 -50.891136 156.999233 -178.750664 32.479375 126.227566 -15.881200 -5.893870 -10.943100 -22.620399 -8.021720 16.049999 0.000000 -31.662500 0.000000 16.534401 5.259500 -1.666960 34.124199 -0.557121 -3.631430 44.286499 3.994790 22.677000 0.000000 41.841900 0.000000 -3.796050 2.686500 -1.560280 6.161456 23.088265 -6.388759 0.000000 0.000000 -4.072240 0.714641 -2.819086 15.010726 0.000000 0.000000 -8.930580 5.276234 3.145606 -11.255880 0.000000 0.000000 22.722601 16.515729 -15.919074 15.632987 0.000000 0.000000 -26.115800 
-14.882166 9.840964 29.339759 -165.335294 18.910846 -168.447927 -0.407714 17.693778 -13.650336 -20.306717 -2.967872 47.127213 0.000000 0.000000 0.000000 -164.306506 -50.497949 156.861366 -178.351437 32.236109 125.950836 -15.928600 -5.517040 -10.603100 -22.422800 -8.817520 15.804200 0.000000 -30.476299 0.000000 16.143101 5.757660 -1.634310 34.257702 -0.602437 -3.575620 44.244301 4.236260 22.984400 0.000000 42.921101 0.000000 -4.794660 2.766150 -2.143380 6.240654 22.711215 -6.959193 0.000000 0.000000 -4.409010 0.426267 -3.134619 15.531355 0.000000 0.000000 -8.872720 5.654027 4.280349 -11.565001 0.000000 0.000000 24.098101 18.341625 -15.248215 15.366099 0.000000 0.000000 -25.909600 
-14.860578 9.840434 29.387333 -165.277937 18.245462 -168.437711 -0.282479 17.821977 -13.373827 -20.392299 -2.847075 47.387118 0.000000 0.000000 0.000000 -164.226256 -50.583574 156.661614 -178.441379 32.275210 125.420880 -15.830000 -5.571310 -10.130100 -22.291800 -9.073650 15.425300 0.000000 -29.299801 0.000000 16.095301 5.702310 -1.748300 34.266201 -0.482415 -3.501470 44.186798 4.517530 23.182699 0.000000 44.001999 0.000000 -5.637980 2.845680 -2.493000 6.428702 22.483249 -7.306779 0.000000 0.000000 -4.615630 0.222443 -3.514332 15.953307 0.000000 0.000000 -8.842890 6.207565 4.907260 -11.749980 0.000000 0.000000 26.078501 21.060452 -14.452887 15.067360 0.000000 0.000000 -25.871200 
-14.838013 9.836996 29.437370 -165.290146 17.707743 -168.531185 -0.125744 18.135408 -13.021897 -20.520188 -2.719031 47.436693 0.000000 0.000000 0.000000 -163.699088 -50.311357 156.044933 -178.263355 32.310201 125.138956 -15.387200 -6.465520 -10.104500 -22.520100 -7.974370 14.747600 0.000000 -28.545900 0.000000 15.581100 6.079240 -1.471390 34.346699 -0.302271 -3.290790 43.936199 4.761720 23.439800 0.000000 45.068600 0.000000 -6.667360 3.152810 -2.787090 6.563255 22.331382 -7.580495 0.000000 0.000000 -4.759580 0.072513 -3.846107 16.304883 0.000000 0.000000 -8.773760 6.912546 4.427002 -12.302878 0.000000 0.000000 29.339100 23.070599 -13.644693 14.591016 0.000000 0.000000 -26.123100 
-14.814708 9.832273 29.487900 -165.411949 17.313814 -168.788932 -0.076361 18.401998 -12.795010 -20.542921 -2.450408 47.653854 0.000000 0.000000 0.000000 -163.317423 -49.825116 155.720779 -177.739882 32.277957 125.143847 -15.374100 -6.333810 -9.718680 -22.463200 -8.759140 14.835400 0.000000 -26.927099 0.000000 15.365600 6.221990 -1.213750 34.254398 -0.105429 -3.328380 43.833099 5.003700 23.646000 0.000000 46.159901 0.000000 -7.250410 3.219210 -2.343580 6.669323 22.036677 -7.749371 0.000000 0.000000 -4.729600 -0.035538 -3.926752 16.580825 0.000000 0.000000 -8.727240 7.676008 3.438107 -13.050803 0.000000 0.000000 33.485802 23.904879 -13.216838 14.135719 0.000000 0.000000 -26.756700 
-14.788212 9.825580 29.535939 -165.602169 16.963369 -169.255884 -0.137930 18.459464 -12.480071 -20.401586 -2.249559 47.783345 0.000000 0.000000 0.000000 -163.371747 -50.186332 155.287977 -178.110044 32.698970 124.640159 -15.522100 -6.291550 -9.473060 -22.408001 -9.118860 14.720500 0.000000 -25.518101 0.000000 14.793300 6.323070 -1.338480 34.215599 0.094722 -3.260920 43.402500 5.487260 24.040800 0.000000 47.198799 0.000000 -7.504490 3.311890 -1.648320 6.864094 21.391759 -7.710909 0.000000 0.000000 -4.595750 -0.145981 -3.694612 16.751439 0.000000 0.000000 -8.671850 8.477971 2.221304 -13.623134 0.000000 0.000000 37.746799 23.373649 -13.161896 13.806948 0.000000 0.000000 -27.161300 
-14.762339 9.818947 29.585340 -165.858421 16.552644 -169.722746 -0.030078 18.822115 -12.297465 -20.667041 -2.130451 47.838117 0.000000 0.000000 0.000000 -162.916982 -49.937474 154.764559 -177.905586 32.706642 124.881111 -15.074000 -7.247110 -9.979190 -22.693399 -7.816730 14.814600 0.000000 -24.515699 0.000000 14.134500 6.680890 -0.715673 34.204800 0.454807 -2.715700 43.178799 6.039340 23.849600 0.000000 48.077202 0.000000 -7.924820 3.608840 -1.169880 6.999677 20.621720 -7.773837 0.000000 0.000000 -4.340090 -0.235863 -3.436666 16.930252 0.000000 0.000000 -8.656940 9.259403 0.972034 -14.071867 0.000000 0.000000 41.650799 21.774374 -13.513845 13.532480 0.000000 0.000000 -25.332000 
-14.735056 9.810818 29.630520 -166.219257 16.211758 -170.260534 -0.060946 19.049749 -12.200382 -20.658711 -1.876363 47.984789 0.000000 0.000000 0.000000 -163.093321 -50.298957 154.721958 -178.559836 33.037684 124.542034 -15.040700 -6.976510 -10.137600 -23.006800 -8.541130 15.019300 0.000000 -22.930201 0.000000 13.132300 7.029980 0.116015 34.270401 0.366202 -2.951440 42.824699 6.592340 24.287901 0.000000 48.867500 0.000000 -8.109510 3.719700 -0.946007 7.038200 19.927768 -7.758523 0.000000 0.000000 -4.069280 -0.374103 -3.168708 17.079944 0.000000 0.000000 -8.728260 9.858218 0.040155 -14.188803 0.000000 0.000000 44.759201 20.544224 -13.548610 13.497827 0.000000 0.000000 -23.288330 
-14.708452 9.799935 29.670677 -166.712799 15.813008 -170.918260 0.041818 19.518879 -12.080942 -21.082922 -1.837968 47.864974 0.000000 0.000000 0.000000 -162.645945 -50.107463 154.259351 -178.427412 32.968796 124.922746 -14.936400 -6.956320 -8.949100 -22.965200 -9.232080 14.491400 0.000000 -21.507601 0.000000 12.651000 7.076730 0.851491 34.185398 0.482893 -2.540810 42.838299 7.163200 24.105600 0.000000 49.389999 0.000000 -8.158890 3.883230 -1.068380 6.919020 19.477425 -7.593190 0.000000 0.000000 -3.945440 -0.559080 -3.310362 17.312097 0.000000 0.000000 -8.579250 10.191054 -0.691749 -13.889633 0.000000 0.000000 46.752899 20.209346 -12.869389 13.835934 0.000000 0.000000 -23.991770 
